<?xml version="1.0" encoding="UTF-8"?>
<svg width="360px" height="345px" viewBox="0 0 360 345" version="1.1" xmlns="http://www.w3.org/2000/svg" xmlns:xlink="http://www.w3.org/1999/xlink">
    <!-- Generator: Sketch 49.3 (51167) - http://www.bohemiancoding.com/sketch -->
    <title>browserslist</title>
    <desc>Created with Sketch.</desc>
    <defs></defs>
    <g id="Page-1" stroke="none" stroke-width="1" fill="none" fill-rule="evenodd">
        <g id="browserslist" fill-rule="nonzero">
            <g id="Group">
                <circle id="Oval" fill="#FFD539" cx="172.5" cy="172.5" r="172.5"></circle>
                <path d="M236.6,64 L238.8,63.5 L241.1,66.2 C240.922931,66.8640229 240.756244,67.5307709 240.6,68.2 C238.9,68.5 237.1,69 235.3,69.6 C235.6,67.8 236.1,65.9 236.6,64 Z M188,116.1 C172.4,140.8 163.9,166.3 166.4,180.1 C195.6,184.8 222.5,183.8 247.2,178.3 C264.304426,174.577999 280.731389,168.236584 295.9,159.5 C298.7,157.9 301.3,155.8 302.9,154.1 C285.134784,149.673503 268.852913,140.635685 255.7,127.9 C239,111.7 231.2,91.9 235.3,69.6 C220.5,75.1 202.8,92.6 188,116.1 Z M242,63 C226,115.3 282.6,145.6 305,149.4 C314,151 306.1,159.3 298.4,163.7 C277.9,175.8 230.7,196.4 162.4,184.3 C151.9,153.4 203.4,66.7 242,63 Z" id="Shape" fill="#000000"></path>
                <path d="M227.2,132 C226.3,136.4 228.3,140.9 232.2,143 C236.003871,145.134363 240.768524,144.436095 243.8,141.3 C246.8,138.1 247.5,133.3 245.5,129.3 C243.4,125.3 239,123.3 234.8,124.3 C237.6,125 239.5,127.8 239.3,130.9 C239,133.9 236.7,136.4 233.7,136.6 C230.7,136.9 228,135 227.2,132 Z M298.2,162 C302.17836,161.947309 305.972805,160.316196 308.748419,157.465566 C311.524033,154.614935 313.053398,150.778351 313,146.8 C313.111594,138.55382 306.545301,131.764184 298.3,131.6 C294.32164,131.652691 290.527195,133.283804 287.751581,136.134434 C284.975967,138.985065 283.446602,142.821649 283.5,146.8 C293.5,154.2 307.9,152.8 298.3,162 L298.2,162 Z" id="Shape" fill="#000000"></path>
                <path d="M163.7,320 C167.2,281 154.5,263.4 132.1,228.1 C109.6,192.8 119.2,128 180.1,133.3 C278.8,141.9 239.7,287.4 163.7,320 Z" id="Shape" fill="#000000"></path>
                <path d="M111,306 C128.1,270.7 122.7,249.7 114.5,208.5 C106.2,167.5 138.4,110.1 193.1,136.9 C281.7,180.3 193.3,302.7 111,306 Z" id="Shape" fill="#000000"></path>
                <path d="M68,273 C96.5,246.3 99,224.7 106,183.6 C113,142.4 163.4,100.6 205,145.1 C272.2,217.3 146,299.3 68,272.9 L68,273 Z" id="Shape" fill="#000000"></path>
                <path d="M39,226.6 C75.3,212 85.3,192.9 106.7,157.1 C128,121.4 190.2,100.5 213.1,156.8 C250.1,247.8 102.5,279 39,226.6 Z" id="Shape" fill="#000000"></path>
                <path d="M28,174.5 C67.2,173.8 83.5,159.5 116.4,133.5 C149.2,107.6 214.9,110.3 216,171.2 C217.7,269.9 68.5,246.3 28,174.5 Z" id="Shape" fill="#000000"></path>
                <path d="M38,120.8 C74.6,134.2 95,126.6 134.7,114.1 C174.5,101.6 234.5,127.7 213.7,185.1 C180.1,278.1 49.9,202.6 38,120.8 Z" id="Shape" fill="#000000"></path>
                <path d="M65.2,75 C94.6,100.5 116.2,100.7 157.6,103.3 C199.1,106 245.6,151.6 205.9,197.3 C141.5,271.4 47.2,155 65.2,75 Z" id="Shape" fill="#000000"></path>
                <path d="M106.9,42 C125.2,76.6 145.4,84.6 183.4,102 C221.4,119.5 248.7,179.2 194.8,208 C107.8,254.4 61.2,110.7 106.8,42 L106.9,42 Z" id="Shape" fill="#000000"></path>
                <path d="M157.5,26 C162.3,64.8 178.3,79.5 207.5,109.4 C236.5,139.4 240.7,204.9 180.3,212.4 C82.6,224.4 90.5,73.7 157.5,26 Z" id="Shape" fill="#000000"></path>
                <path d="M212.5,28 C203,65.9 212.7,85.3 229.3,123.7 C245.9,162 226.3,224.5 167,209.7 C71,186 132.4,48.5 212.5,28 Z" id="Shape" fill="#000000"></path>
                <path d="M262,50.6 C208.9,91 239.4,120 239.4,197.1 C239.4,267.6 204.1,240.1 154,205 C72.7,148 179.8,41 262,50.6 Z" id="Shape" fill="#000000"></path>
                <path d="M239,179.3 C238.180366,168.195389 236.979659,157.122198 235.4,146.1 L235,144 L237.7,143.7 C245.2,142.8 249,133.9 244.7,127.9 C243.2,125.9 238.9,123.7 236.3,123.7 L234.3,123.7 L236.5,125.7 C238,127.1 238.5,128.1 238.5,129.5 C238.5,132.1 237.2,134.5 235.4,135.4 C234,136 233.9,136 233.6,134.2 C231.1304,121.253495 230.490823,108.024359 231.7,94.9 C232.2,91.9 233.2,88.1 233.8,86.3 L235,83 L235,85.7 C235,87.1 235.6,90.7 236.2,93.7 C240.2,113.2 253.4,130.2 274.6,143.4 C281.34226,147.409152 288.438784,150.790043 295.8,153.5 C298.1,154.3 300.3,155.2 300.6,155.5 C301.6,156.5 300.5,158 296.8,160.4 C282.345115,168.828667 266.702924,175.031605 250.4,178.8 C238.4,181.7 239.3,181.6 238.9,179.3 L239,179.3 Z" id="Shape" fill="#FFFFFF"></path>
            </g>
            <g id="Group" transform="translate(258.000000, 6.000000)">
                <path d="M25.4,0 C13.4,0 3.4,8 0,18.9 C28.8,33.1 52.6,57.9 67.6,89.1 L67.6,243 C53.4718807,273.197336 29.6862767,297.827399 5.68434189e-14,313 C3.38749192,324.201336 13.6976792,331.87309 25.4,331.9 L75.3,331.9 C90,331.9 102,319.9 102,305.2 L102,26.7 C102,11.9 90,0 75.3,0 L25.4,0 Z" id="Shape" fill="#6A6A64"></path>
                <path d="M33.5,301 C33.5,305.418278 37.081722,309 41.5,309 L59.5,309 C63.918278,309 67.5,305.418278 67.5,301 L67.5,243 C58.9,261 47.1,277 33.4,290 L33.5,301.1 L33.5,301 Z M41,23 C36.581722,23 33,26.581722 33,31 L33,41.7 C46.8,54.7 59,71 67.6,89.1 L67,31 C67,26.581722 63.418278,23 59,23 L41,23 Z" id="Shape" fill="#2D313C"></path>
            </g>
            <path d="M321.5,87.3 C322.868707,89.8817071 324.202164,92.4819486 325.5,95.1 L325.5,249 C324.214745,251.624376 322.881185,254.224819 321.5,256.8 L321.5,87.3 Z" id="Shape" fill-opacity="0.3" fill="#060606"></path>
        </g>
    </g>
</svg>